<svg width="415" height="153" viewBox="0 0 415 153" fill="none" xmlns="http://www.w3.org/2000/svg">
<g clip-path="url(#clip0_45_8)">
<path d="M125.58 0.23H85.8V37.7H125.58V0.23Z" fill="url(#paint0_linear_45_8)"/>
<path d="M85.95 49.93L125.51 49.88V99.88C125.59 104.63 125.2 117.88 116.07 130.05C107.91 140.96 97.07 145.29 92.98 146.87C88.4222 148.542 83.7137 149.771 78.92 150.54C73.8211 151.431 68.6561 151.889 63.48 151.91C53.54 152.03 30.63 152.2 0.0399961 152.07C0.0399961 143.19 0.0666646 134.31 0.119998 125.43L57.21 125.16C64.211 124.673 70.844 121.842 76.0384 117.123C81.2328 112.404 84.6857 106.072 85.84 99.15C85.86 82.7433 85.8967 66.3367 85.95 49.93Z" fill="url(#paint1_linear_45_8)"/>
<path d="M138.31 0.150002V150.39L177.99 150.52V25.04L227.85 25.11C237.08 27.78 243.51 35.77 243.85 44.64C244.14 52.81 239.22 60.8 232.23 63.9C230.203 64.7902 228.023 65.2825 225.81 65.35H181.87L250.92 150.45H293.83L244.54 90.34C247.621 89.4319 250.613 88.2471 253.48 86.8C259.412 84.0302 264.678 80.0159 268.92 75.03C272.112 71.0807 274.641 66.6397 276.41 61.88C278.177 58.0646 279.315 53.9887 279.78 49.81C280.022 46.7514 279.918 43.6753 279.47 40.64C279.133 36.4024 278.207 32.2323 276.72 28.25C275.071 24.1573 272.786 20.3505 269.95 16.97C267.142 13.4208 263.85 10.2835 260.17 7.65C254.592 3.75832 248.224 1.14616 241.52 7.62939e-06L138.31 0.150002Z" fill="url(#paint2_linear_45_8)"/>
<path d="M288.69 2.03001H328.36C328.36 33.15 328.36 64.27 328.36 95.39C328.531 103.071 331.557 110.414 336.849 115.985C342.14 121.555 349.317 124.955 356.98 125.52L414.1 125.58C414.1 134.4 414.1 143.213 414.1 152.02L346.82 151.7C341.495 151.399 336.204 150.66 331 149.49C324.95 148.12 319.87 146.98 314 143.75C308.427 140.602 303.522 136.397 299.56 131.37C293.855 124.098 290.211 115.425 289.01 106.26C288.923 71.52 288.817 36.7767 288.69 2.03001Z" fill="url(#paint3_linear_45_8)"/>
</g>
<defs>
<linearGradient id="paint0_linear_45_8" x1="105.69" y1="0.23" x2="105.69" y2="37.7" gradientUnits="userSpaceOnUse">
<stop stop-color="#FFB200"/>
<stop offset="0.405" stop-color="#F3FEB8"/>
<stop offset="0.665" stop-color="#FEFFD2"/>
<stop offset="1" stop-color="#FFB200"/>
</linearGradient>
<linearGradient id="paint1_linear_45_8" x1="62.7788" y1="49.88" x2="62.7788" y2="152.117" gradientUnits="userSpaceOnUse">
<stop stop-color="#FFB200"/>
<stop offset="0.405" stop-color="#F3FEB8"/>
<stop offset="0.665" stop-color="#FEFFD2"/>
<stop offset="1" stop-color="#FFB200"/>
</linearGradient>
<linearGradient id="paint2_linear_45_8" x1="216.07" y1="7.62939e-06" x2="216.07" y2="150.52" gradientUnits="userSpaceOnUse">
<stop stop-color="#FFB200"/>
<stop offset="0.405" stop-color="#F3FEB8"/>
<stop offset="0.665" stop-color="#FEFFD2"/>
<stop offset="1" stop-color="#FFB200"/>
</linearGradient>
<linearGradient id="paint3_linear_45_8" x1="351.395" y1="2.03001" x2="351.395" y2="152.02" gradientUnits="userSpaceOnUse">
<stop stop-color="#FFB200"/>
<stop offset="0.405" stop-color="#F3FEB8"/>
<stop offset="0.665" stop-color="#FEFFD2"/>
<stop offset="1" stop-color="#FFB200"/>
</linearGradient>
<clipPath id="clip0_45_8">
<rect width="414.12" height="152.15" fill="white"/>
</clipPath>
</defs>
</svg>
