<svg id="Layer_2" data-name="Layer 2" xmlns="http://www.w3.org/2000/svg" viewBox="0 0 414.12 152.15"><defs><style>.cls-1{fill:#1d1d1b;}</style></defs><rect class="cls-1" x="85.8" y="0.23" width="39.78" height="37.47"/><path class="cls-1" d="M183.06,288.08" transform="translate(-76.05 -190.85)"/><path class="cls-1" d="M162,240.78l39.56-.05v50c.08,4.75-.31,18-9.44,30.17-8.16,10.91-19,15.24-23.09,16.82a75.52,75.52,0,0,1-14.06,3.67,91.82,91.82,0,0,1-15.44,1.37c-9.94.12-32.85.29-63.44.16q0-13.32.08-26.64l57.09-.27A31.22,31.22,0,0,0,161.89,290Q161.92,265.39,162,240.78Z" transform="translate(-76.05 -190.85)"/><path class="cls-1" d="M214.36,191V341.24l39.68.13V215.89l49.86.07c9.23,2.67,15.66,10.66,16,19.53.29,8.17-4.63,16.16-11.62,19.26a17.28,17.28,0,0,1-6.42,1.45l-43.94,0,69.05,85.1h42.91l-49.29-60.11a53.27,53.27,0,0,0,8.94-3.54,45.61,45.61,0,0,0,15.44-11.77,46.93,46.93,0,0,0,7.49-13.15,39,39,0,0,0,3.37-12.07,40.81,40.81,0,0,0-.31-9.17,45.78,45.78,0,0,0-2.75-12.39A41.94,41.94,0,0,0,346,207.82a48.33,48.33,0,0,0-9.78-9.32,46.2,46.2,0,0,0-18.65-7.65Z" transform="translate(-76.05 -190.85)"/><path class="cls-1" d="M364.74,192.88l39.67,0q0,46.68,0,93.36a30.9,30.9,0,0,0,28.62,30.13l57.12.06q0,13.23,0,26.44l-67.28-.32a97.16,97.16,0,0,1-15.82-2.21c-6.05-1.37-11.13-2.51-17-5.74a49.18,49.18,0,0,1-14.44-12.38,51.53,51.53,0,0,1-10.55-25.11Q364.93,245,364.74,192.88Z" transform="translate(-76.05 -190.85)"/></svg>